<svg xmlns="http://www.w3.org/2000/svg" width="1200" height="630" viewBox="0 0 1200 630">
  <defs>
    <linearGradient id="og-bg" x1="0%" y1="0%" x2="100%" y2="100%">
      <stop offset="0%" stop-color="#0b1220"/>
      <stop offset="55%" stop-color="#0f172a"/>
      <stop offset="100%" stop-color="#1e293b"/>
    </linearGradient>
    <linearGradient id="og-glow" x1="0%" y1="0%" x2="100%" y2="0%">
      <stop offset="0%" stop-color="#34d399" stop-opacity="0.12"/>
      <stop offset="100%" stop-color="#34d399" stop-opacity="0"/>
    </linearGradient>
    <filter id="og-soft" x="-20%" y="-20%" width="140%" height="140%">
      <feGaussianBlur in="SourceGraphic" stdDeviation="24"/>
    </filter>
  </defs>
  <rect width="1200" height="630" fill="url(#og-bg)"/>
  <ellipse cx="980" cy="120" rx="320" ry="200" fill="url(#og-glow)" filter="url(#og-soft)" opacity="0.9"/>
  <path
    d="M 720 420 Q 820 360 900 340 T 1040 300"
    fill="none"
    stroke="#34d399"
    stroke-width="4"
    stroke-opacity="0.35"
    stroke-linecap="round"
  />
  <circle cx="760" cy="400" r="8" fill="#34d399" opacity="0.9"/>
  <circle cx="880" cy="350" r="8" fill="#34d399" opacity="0.75"/>
  <circle cx="1000" cy="310" r="8" fill="#34d399" opacity="0.6"/>
  <g transform="translate(880 140) scale(1.15)">
    <path
      fill="#34d399"
      d="M256 112c-66 0-120 54-120 120 0 96 120 232 120 232s120-136 120-232c0-66-54-120-120-120zm0 176a56 56 0 110-112 56 56 0 010 112z"
    />
  </g>
  <text
    x="72"
    y="200"
    fill="#f8fafc"
    font-family="system-ui, -apple-system, Segoe UI, Roboto, Helvetica Neue, Arial, sans-serif"
    font-size="56"
    font-weight="700"
    letter-spacing="-0.02em"
  >
    Yard Sale Route Planner
  </text>
  <text
    x="72"
    y="268"
    fill="#94a3b8"
    font-family="system-ui, -apple-system, Segoe UI, Roboto, Helvetica Neue, Arial, sans-serif"
    font-size="30"
    font-weight="500"
  >
    Flyers to map pins - route for what you want to find
  </text>
  <text
    x="72"
    y="340"
    fill="#64748b"
    font-family="system-ui, -apple-system, Segoe UI, Roboto, Helvetica Neue, Arial, sans-serif"
    font-size="22"
  >
    Free | Private | Runs in your browser
  </text>
  <rect x="72" y="400" width="72" height="5" rx="2.5" fill="#34d399" opacity="0.95"/>
</svg>
